<?xml version="1.0" encoding="utf-8"?>
<!DOCTYPE svg PUBLIC "-//W3C//DTD SVG 1.1//EN" "http://www.w3.org/Graphics/SVG/1.1/DTD/svg11.dtd">
<svg version="1.1" id="Capa_1" xmlns="http://www.w3.org/2000/svg" xmlns:xlink="http://www.w3.org/1999/xlink" x="0px" y="0px"
width="64px" height="64px" viewBox="0 0 64 64" enable-background="new 0 0 720 1544" xml:space="preserve">
<defs></defs><path layer="1" fill="#000000" fill-opacity="1.0" stroke="#000000" stroke-width="1.0" stroke-opacity="1.0" stroke-miterlimit="10" d="M27.74,51.21C27.74,51.21,45.33,43.86,45.33,43.86C45.33,43.86,49.41,30.3,49.41,30.3C49.41,30.3,38.27,13.78,38.27,13.78C38.27,13.78,20.73,19.66,20.73,19.66C20.73,19.66,14.73,35.17,14.73,35.17C14.73,35.17,18.94,40.32,27.74,51.21Z" stroke-linecap="round"/>
<path layer="1" fill="#FFFFFF" fill-opacity="1.0" stroke="#FFFFFF" stroke-width="1.0" stroke-opacity="1.0" stroke-miterlimit="10" d="M41.47,34.94C41.47,34.94,45.07,34.05,45.07,34.05C45.07,34.05,43.6,37.89,43.6,37.89C43.6,37.89,42.95,36.98,41.47,34.94Z" stroke-linecap="round"/>
<path layer="1" fill="#FFFFFF" fill-opacity="1.0" stroke="#FFFFFF" stroke-width="3.0" stroke-opacity="1.0" stroke-miterlimit="10" d="M31.88,34.63C31.88,34.63,30.03,44.86,30.03,44.86Z" stroke-linecap="round"/>
<path layer="1" fill="#FFFFFF" fill-opacity="1.0" stroke="#FFFFFF" stroke-width="3.0" stroke-opacity="1.0" stroke-miterlimit="10" d="M37.23,41.33C37.23,41.33,24.8,37.67,24.8,37.67Z" stroke-linecap="round"/>
<path layer="1" fill="#FFFFFF" fill-opacity="0.0" stroke="#FFFFFF" stroke-width="2.0" stroke-opacity="1.0" stroke-miterlimit="10" d="M32.91,18.5C32.91,18.5,23.09,27.95,23.09,27.95C23.09,27.95,21.65,25.96,21.65,25.96" stroke-linecap="round"/>
<path layer="1" fill="#FFFFFF" fill-opacity="1.0" stroke="#FFFFFF" stroke-width="1.0" stroke-opacity="1.0" stroke-miterlimit="10" d="M38.41,21.79C38.41,21.79,45.3,30.21,45.3,30.21C45.3,30.21,40.5,30.89,38.72,31.16C38.72,31.16,36.65,28.54,36.65,28.54C36.65,28.54,37.14,26.69,38.41,21.79Z" stroke-linecap="round"/>
</svg>