<?xml version="1.0" encoding="utf-8"?>
<!DOCTYPE svg PUBLIC "-//W3C//DTD SVG 1.1//EN" "http://www.w3.org/Graphics/SVG/1.1/DTD/svg11.dtd">
<svg version="1.1" id="Capa_1" xmlns="http://www.w3.org/2000/svg" xmlns:xlink="http://www.w3.org/1999/xlink" x="0px" y="0px"
width="64px" height="64px" viewBox="0 0 64 64" enable-background="new 0 0 720 1544" xml:space="preserve">
<defs></defs><path layer="1" fill="#000000" fill-opacity="1.0" stroke="#000000" stroke-width="1.0" stroke-opacity="1.0" stroke-miterlimit="10" d="M24.26,63.43C24.26,63.43,55.04,50.97,55.04,50.97C55.04,50.97,62.18,27.99,62.18,27.99C62.18,27.99,42.69,-0.0,42.69,-0.0C42.69,-0.0,12.0,9.96,12.0,9.96C12.0,9.96,1.5,36.24,1.5,36.24C1.5,36.24,8.87,44.97,24.26,63.43Z" stroke-linecap="round"/>
<path layer="1" fill="#FFFFFF" fill-opacity="1.0" stroke="#FFFFFF" stroke-width="1.0" stroke-opacity="1.0" stroke-miterlimit="10" d="M48.29,35.86C48.29,35.86,54.59,34.35,54.59,34.35C54.59,34.35,52.01,40.85,52.01,40.85C52.01,40.85,50.88,39.31,48.29,35.86Z" stroke-linecap="round"/>
<path layer="1" fill="#FFFFFF" fill-opacity="1.0" stroke="#FFFFFF" stroke-width="3.0" stroke-opacity="1.0" stroke-miterlimit="10" d="M31.51,35.33C31.51,35.33,28.27,52.67,28.27,52.67C28.27,52.67,31.51,35.33,31.51,35.33Z" stroke-linecap="round"/>
<path layer="1" fill="#FFFFFF" fill-opacity="1.0" stroke="#FFFFFF" stroke-width="3.0" stroke-opacity="1.0" stroke-miterlimit="10" d="M40.87,46.68C40.87,46.68,19.12,40.48,19.12,40.48C19.12,40.48,40.87,46.68,40.87,46.68Z" stroke-linecap="round"/>
<path layer="1" fill="#FFFFFF" fill-opacity="0.0" stroke="#FFFFFF" stroke-width="2.0" stroke-opacity="1.0" stroke-miterlimit="10" d="M33.31,8.0C33.31,8.0,16.13,24.01,16.13,24.01C16.13,24.01,13.61,20.64,13.61,20.64" stroke-linecap="round"/>
<path layer="1" fill="#FFFFFF" fill-opacity="1.0" stroke="#FFFFFF" stroke-width="1.0" stroke-opacity="1.0" stroke-miterlimit="10" d="M42.93,13.57C42.93,13.57,54.99,27.84,54.99,27.84C54.99,27.84,46.59,28.99,43.47,29.45C43.47,29.45,39.85,25.01,39.85,25.01C39.85,25.01,40.71,21.87,42.93,13.57Z" stroke-linecap="round"/>
</svg>